<svg width="24" height="24" viewBox="0 0 24 24" fill="none" xmlns="http://www.w3.org/2000/svg">
<path d="M3.85205 2.86658L21.0979 2.86658" stroke="#515151" stroke-width="1.43715" stroke-linecap="round" stroke-linejoin="round"/>
<path d="M11.2353 21.5137L11.2906 20.4551M11.2906 20.4551C11.5754 20.5288 12.0723 20.6598 12.3285 20.7958C14.568 21.9836 15.0845 22.41 15.9809 21.6584L19.764 17.9217C20.5264 17.0349 20.105 16.5144 18.9397 14.2657C18.8064 14.0083 18.647 13.5438 18.5763 13.2587M11.2906 20.4551C10.2088 20.1751 9.22826 20.2612 8.56416 19.752C8.45554 19.6688 7.40401 18.581 6.63149 17.8012C6.05104 17.2153 6.63615 16.6728 7.14379 16.0812C7.46639 15.7052 7.7554 15.2943 8.10435 14.9426C10.0384 12.993 11.3282 11.715 13.2815 9.82709C13.6591 9.462 14.1049 9.15988 14.5085 8.82349C14.9644 8.44357 15.4507 8.05638 16.0027 8.54488C16.8258 9.27316 17.8532 10.3864 17.9354 10.4957C18.438 11.1643 18.3076 12.1756 18.5763 13.2587M11.2906 20.4551L18.5763 13.2587M18.5763 13.2587L19.6463 13.1276M8.66633 19.8242L9.58891 18.6448M11.5111 14.8477L13.1631 13.3019M16.7918 11.4595L18.146 10.8752M13.14 9.92468L12.3362 9.08269C11.9706 8.69969 11.9857 8.0931 12.37 7.7288L13.1379 7.00091C13.5138 6.64454 14.1054 6.65134 14.473 7.01625L15.8558 8.38881M8.07116 15.0551L7.2382 14.2419C6.85931 13.872 6.25167 13.8794 5.88198 14.2585L5.14329 15.0159C4.78164 15.3866 4.78093 15.9774 5.14169 16.3491L6.49861 17.7471" stroke="#515151" stroke-width="1.43715" stroke-linecap="round" stroke-linejoin="round"/>
</svg>
