<svg width="23" height="25" viewBox="0 0 23 25" fill="none" xmlns="http://www.w3.org/2000/svg">
<path d="M8.49805 1.41138V4.8083" stroke="#0D1D24" stroke-width="1.69846" stroke-linecap="round" stroke-linejoin="round"/>
<path d="M15.2917 1.41138V4.8083" stroke="#0D1D24" stroke-width="1.69846" stroke-linecap="round" stroke-linejoin="round"/>
<path d="M11.8945 21.8921C13.9754 21.8921 15.5971 21.7794 16.8652 21.4976C18.1246 21.2176 18.99 20.781 19.6074 20.1636C20.2248 19.5461 20.6615 18.6809 20.9414 17.4214C21.2232 16.1533 21.3359 14.5324 21.3359 12.4517C21.3359 11.5353 21.3137 10.7049 21.2646 9.95264C21.0649 6.89097 20.4203 5.27998 19.1572 4.354C17.8312 3.38217 15.6396 3.01025 11.8945 3.01025C8.1493 3.01028 5.95775 3.38196 4.63184 4.354C3.36877 5.27998 2.72513 6.89097 2.52539 9.95264C2.47632 10.7049 2.4541 11.5352 2.4541 12.4517C2.45411 14.5324 2.56682 16.1533 2.84863 17.4214C3.12857 18.6809 3.56514 19.5461 4.18262 20.1636C4.80009 20.7811 5.66526 21.2176 6.9248 21.4976C8.19285 21.7794 9.81379 21.8921 11.8945 21.8921Z" stroke="#0D1D24" stroke-width="1.5" stroke-linecap="round" stroke-linejoin="round"/>
<path d="M9.34692 16.697C9.81584 16.6971 10.1955 17.0777 10.1956 17.5466C10.1956 18.0156 9.81587 18.3962 9.34692 18.3962H6.79907C6.33024 18.396 5.94946 18.0155 5.94946 17.5466C5.94951 17.0778 6.33028 16.6972 6.79907 16.697H9.34692ZM16.8147 13.5496C17.1463 13.218 17.6843 13.2179 18.0159 13.5496C18.3471 13.8812 18.3473 14.4192 18.0159 14.7507L14.6184 18.1472C14.2869 18.4787 13.7499 18.4785 13.4182 18.1472L12.1438 16.8738C11.8122 16.5421 11.8122 16.0042 12.1438 15.6726C12.4754 15.341 13.0133 15.341 13.345 15.6726L14.0178 16.3464L16.8147 13.5496ZM9.34692 13.3005C9.81587 13.3006 10.1956 13.6812 10.1956 14.1501C10.1954 14.619 9.81577 14.9997 9.34692 14.9998H6.79907C6.33034 14.9995 5.94962 14.6189 5.94946 14.1501C5.94946 13.6813 6.33024 13.3008 6.79907 13.3005H9.34692Z" fill="#0D1D24"/>
</svg>
