<svg width="32" height="32" viewBox="0 0 32 32" fill="none" xmlns="http://www.w3.org/2000/svg">
<rect x="1" y="1" width="30" height="30" rx="15" fill="#0D60A1"/>
<rect x="1" y="1" width="30" height="30" rx="15" stroke="white" stroke-width="2"/>
<path fill-rule="evenodd" clip-rule="evenodd" d="M11.2001 11.9999C10.3164 11.9999 9.6001 12.7162 9.6001 13.5999V19.9999C9.6001 20.8836 10.3164 21.5999 11.2001 21.5999H20.8001C21.6838 21.5999 22.4001 20.8836 22.4001 19.9999V13.5999C22.4001 12.7162 21.6838 11.9999 20.8001 11.9999H19.5315C19.3193 11.9999 19.1158 11.9156 18.9658 11.7656L18.0687 10.8685C17.7687 10.5685 17.3617 10.3999 16.9374 10.3999H15.0628C14.6385 10.3999 14.2315 10.5685 13.9315 10.8685L13.0344 11.7656C12.8844 11.9156 12.6809 11.9999 12.4687 11.9999H11.2001ZM16.0001 19.1999C17.3256 19.1999 18.4001 18.1254 18.4001 16.7999C18.4001 15.4744 17.3256 14.3999 16.0001 14.3999C14.6746 14.3999 13.6001 15.4744 13.6001 16.7999C13.6001 18.1254 14.6746 19.1999 16.0001 19.1999Z" fill="white"/>
</svg>
