<svg width="42" height="42" viewBox="0 0 42 42" fill="none" xmlns="http://www.w3.org/2000/svg">
<circle cx="21" cy="21" r="21" fill="#F4F4F4"/>
<path fill-rule="evenodd" clip-rule="evenodd" d="M21.5834 14.7889L16.3107 17.4252C16.0322 17.5645 15.8063 17.7904 15.667 18.0689C15.3759 18.651 15.1801 19.2669 15.0796 19.8944H29.1362V21.8944H15.0796C15.1801 22.5219 15.3759 23.1378 15.667 23.7199C15.8063 23.9985 16.0322 24.2244 16.3107 24.3636L21.5834 27L20.689 28.7889L15.4163 26.1525C14.7507 25.8197 14.211 25.28 13.8782 24.6144C12.7073 22.2726 12.7073 19.5162 13.8782 17.1745C14.211 16.5089 14.7507 15.9692 15.4163 15.6364L15.8456 16.495L15.4163 15.6364L20.689 13L21.5834 14.7889Z" fill="#0C1D24"/>
</svg>
