<svg width="24" height="24" viewBox="0 0 24 24" fill="none" xmlns="http://www.w3.org/2000/svg">
<path d="M19.1881 10.6049V10.1231C19.1881 6.48962 19.188 4.67283 18.0593 3.54404C16.9305 2.41528 15.1138 2.41528 11.4803 2.41528C7.84687 2.41528 6.0301 2.41534 4.90131 3.54409C3.77255 4.67287 3.77253 6.48958 3.7725 10.123L3.77246 14.4588C3.77243 17.6262 3.77242 19.21 4.64719 20.2759C4.80736 20.4711 4.98632 20.65 5.18149 20.8102C6.24743 21.6849 7.83112 21.6849 10.9985 21.6849" stroke="#0D1D24" stroke-width="1.44522" stroke-linecap="round" stroke-linejoin="round"/>
<path d="M7.62646 7.23267H15.3343M7.62646 11.0866H11.4804" stroke="#0D1D24" stroke-width="1.44522" stroke-linecap="round" stroke-linejoin="round"/>
<path d="M18.2247 18.3131L16.7795 17.7832V15.4226M12.4438 17.3496C12.4438 19.7441 14.385 21.6853 16.7795 21.6853C19.1741 21.6853 21.1152 19.7441 21.1152 17.3496C21.1152 14.955 19.1741 13.0139 16.7795 13.0139C14.385 13.0139 12.4438 14.955 12.4438 17.3496Z" stroke="#0D1D24" stroke-width="1.44522" stroke-linecap="round" stroke-linejoin="round"/>
</svg>
