<svg width="22" height="22" viewBox="0 0 22 22" fill="none" xmlns="http://www.w3.org/2000/svg">
<path d="M1.46209 11.9276C1.12196 9.71414 0.9519 8.60752 1.37035 7.62645C1.78879 6.64537 2.71717 5.97412 4.5739 4.63164L5.96118 3.62859C8.27093 1.95856 9.42579 1.12354 10.7584 1.12354C12.0909 1.12354 13.2458 1.95856 15.5556 3.62859L16.9428 4.63164C18.7996 5.97412 19.7279 6.64537 20.1464 7.62645C20.5648 8.60752 20.3948 9.71414 20.0547 11.9276L19.7646 13.8149C19.2824 16.9525 19.0414 18.5213 17.9161 19.4573C16.7909 20.3932 15.1457 20.3932 11.8556 20.3932H9.66117C6.37099 20.3932 4.72591 20.3932 3.60065 19.4573C2.47539 18.5213 2.23431 16.9525 1.75214 13.8149L1.46209 11.9276Z" stroke="#0D1D24" stroke-width="1.44522" stroke-linejoin="round"/>
<path d="M13.6486 15.5757C12.8783 16.1754 11.8663 16.5392 10.7581 16.5392C9.64985 16.5392 8.63801 16.1754 7.86768 15.5757" stroke="#0D1D24" stroke-width="1.44522" stroke-linecap="round"/>
</svg>
