<svg width="36" height="36" viewBox="0 0 36 36" fill="none" xmlns="http://www.w3.org/2000/svg">
<circle cx="18" cy="18" r="18" fill="white"/>
<path d="M20.625 22.5C20.625 23.9497 19.4497 25.125 18 25.125C16.5503 25.125 15.375 23.9497 15.375 22.5" stroke="#0D60A1" stroke-width="1.125" stroke-linecap="round" stroke-linejoin="round"/>
<path d="M23.4233 22.5H12.5767C11.844 22.5 11.25 21.906 11.25 21.1733C11.25 20.8215 11.3898 20.4841 11.6386 20.2352L12.091 19.7828C12.5129 19.3609 12.75 18.7886 12.75 18.1919V16.125C12.75 13.2255 15.1005 10.875 18 10.875C20.8995 10.875 23.25 13.2255 23.25 16.125V18.1919C23.25 18.7886 23.4871 19.3609 23.909 19.7828L24.3614 20.2352C24.6102 20.4841 24.75 20.8215 24.75 21.1733C24.75 21.906 24.156 22.5 23.4233 22.5Z" stroke="#0D60A1" stroke-width="1.125" stroke-linecap="round" stroke-linejoin="round"/>
</svg>
