<svg width="10" height="10" viewBox="0 0 10 10" fill="none" xmlns="http://www.w3.org/2000/svg">
<g clip-path="url(#clip0_165_2080)">
<path d="M5.67406 8.90258C5.49336 9.07176 5.25183 9.16634 5.00047 9.16634C4.7491 9.16634 4.50758 9.07176 4.32687 8.90258C2.67209 7.34383 0.454485 5.60256 1.53595 3.07453C2.12068 1.70766 3.52431 0.833008 5.00047 0.833008C6.47662 0.833008 7.88025 1.70766 8.46499 3.07453C9.54508 5.59937 7.33292 7.3492 5.67406 8.90258Z" stroke="#4B4B4B" stroke-width="0.714286"/>
<path d="M6.45817 4.58333C6.45817 5.38875 5.80525 6.04167 4.99984 6.04167C4.19442 6.04167 3.5415 5.38875 3.5415 4.58333C3.5415 3.77792 4.19442 3.125 4.99984 3.125C5.80525 3.125 6.45817 3.77792 6.45817 4.58333Z" stroke="#4B4B4B" stroke-width="0.714286"/>
</g>
<defs>
<clipPath id="clip0_165_2080">
<rect width="10" height="10" fill="white"/>
</clipPath>
</defs>
</svg>
