<svg width="23" height="24" viewBox="0 0 23 24" fill="none" xmlns="http://www.w3.org/2000/svg">
<path d="M14.8264 22.0307H8.16787C7.00731 22.0307 6.42703 22.0307 6.11568 21.7924C5.92962 21.6499 5.8042 21.4569 5.75974 21.2446C5.68534 20.8894 5.98389 20.4558 6.58099 19.5887C7.21964 18.6613 7.53896 18.1976 7.99547 17.8769C8.27577 17.68 8.59117 17.5244 8.92917 17.4163C9.47964 17.2402 10.1003 17.2402 11.3416 17.2402H11.6526C12.894 17.2402 13.5146 17.2402 14.0651 17.4163C14.4031 17.5244 14.7185 17.68 14.9988 17.8769C15.4553 18.1976 15.7747 18.6613 16.4132 19.5887C17.0104 20.4558 17.309 20.8894 17.2345 21.2446C17.1901 21.4569 17.0647 21.6499 16.8786 21.7924C16.5672 22.0307 15.987 22.0307 14.8264 22.0307Z" stroke="#515151" stroke-width="1.43715" stroke-linecap="round" stroke-linejoin="round"/>
<path d="M8.1438 12.4497H14.8505" stroke="#515151" stroke-width="1.43715" stroke-linecap="round" stroke-linejoin="round"/>
<path d="M11.4973 13.4078V17.2402" stroke="#515151" stroke-width="1.43715" stroke-linecap="round" stroke-linejoin="round"/>
<path d="M9.58703 12.4498C9.58703 12.4498 10.5758 6.83358 8.78589 4.22815C8.26311 3.46716 9.1219 3.1564 9.61012 3.01886C11.4528 2.49968 12.567 3.35487 12.9899 5.16003C13.0346 5.35062 13.0075 5.55039 12.9259 5.72846L12.68 6.26484C12.5541 6.53949 12.5657 6.85705 12.7115 7.12185L13.1793 7.97172C13.3435 8.26974 13.3364 8.6318 13.1609 8.92333L12.8019 9.51959C12.6061 9.84483 12.6261 10.2533 12.7888 10.5961C13.1794 11.4188 13.4133 12.4498 13.4133 12.4498" stroke="#515151" stroke-width="1.43715" stroke-linecap="round" stroke-linejoin="round"/>
</svg>
