<svg width="44" height="44" viewBox="0 0 44 44" fill="none" xmlns="http://www.w3.org/2000/svg">
<circle cx="22" cy="22" r="22" fill="#0D60A1"/>
<path d="M21.1576 11.5239C17.8968 11.5239 15.3739 14.3819 15.7783 17.6175L15.8545 18.2271C15.966 19.1192 15.6402 20.0103 14.9795 20.62C13.6104 21.8834 13.23 23.8942 14.043 25.5704L14.1423 25.775C14.9001 27.3374 16.484 28.3295 18.2205 28.3295H26.1151C27.6129 28.3295 29.0069 27.5643 29.8111 26.3007C30.9463 24.5169 30.6457 22.1769 29.0964 20.7381L29.0542 20.699C28.345 20.0403 27.9958 19.0808 28.1159 18.1204L28.1779 17.6239C28.5828 14.3849 26.0572 11.5239 22.793 11.5239H21.1576Z" fill="white"/>
<path d="M19.8933 30.0581C19.6546 29.7398 19.2032 29.6753 18.8849 29.914C18.5667 30.1527 18.5022 30.6041 18.7409 30.9223L19.029 31.3065C20.6135 33.4192 23.7826 33.4192 25.3671 31.3065L25.6552 30.9223C25.8938 30.6041 25.8294 30.1527 25.5111 29.914C25.1929 29.6753 24.7415 29.7398 24.5028 30.0581L24.2147 30.4422C23.2064 31.7866 21.1897 31.7866 20.1814 30.4422L19.8933 30.0581Z" fill="white"/>
<circle cx="28.1905" cy="16.1905" r="3.69048" fill="white" stroke="#0D60A1"/>
</svg>
