<svg width="24" height="24" viewBox="0 0 24 24" fill="none" xmlns="http://www.w3.org/2000/svg">
<path d="M11.0019 13L9.66629 14.7365C9.52316 14.9225 9.62575 15.1903 9.85915 15.2398L11.2582 15.5368C11.5071 15.5896 11.602 15.886 11.428 16.067L9.77087 17.7905" stroke="#515151" stroke-width="1.43715" stroke-linecap="round" stroke-linejoin="round"/>
<path d="M4.81006 10.1257H16.3073" stroke="#515151" stroke-width="1.43715" stroke-linecap="round" stroke-linejoin="round"/>
<path d="M4.81006 20.6648V9.16755C4.81006 6.45763 4.81006 5.10267 5.65192 4.26081C6.49379 3.41895 7.84874 3.41895 10.5587 3.41895C13.2686 3.41895 14.6235 3.41895 15.4654 4.26081C16.3073 5.10267 16.3073 6.45763 16.3073 9.16755V20.6648H4.81006Z" stroke="#515151" stroke-width="1.43715"/>
<path d="M2.89355 20.6648H18.2232" stroke="#515151" stroke-width="1.43715" stroke-linecap="round" stroke-linejoin="round"/>
<path d="M16.3071 13.9581H17.904C18.201 13.9581 18.3495 13.9581 18.4713 13.9908C18.8019 14.0793 19.0602 14.3376 19.1488 14.6683C19.1814 14.7901 19.1814 14.9386 19.1814 15.2356V16.3534C19.1814 17.1471 19.8249 17.7905 20.6186 17.7905C21.4123 17.7905 22.0557 17.1471 22.0557 16.3534V10.328C22.0557 9.75206 22.0557 9.46408 21.9735 9.19253C21.8913 8.92097 21.7315 8.68137 21.4121 8.20216L20.671 7.09052C20.339 6.59248 19.78 6.29333 19.1814 6.29333" stroke="#515151" stroke-width="1.43715" stroke-linecap="round" stroke-linejoin="round"/>
</svg>
