<svg width="28" height="28" viewBox="0 0 28 28" fill="none" xmlns="http://www.w3.org/2000/svg">
<path d="M21.9702 21.8465C24.2703 19.7494 18.6874 16.9235 18.6874 16.9235C17.5421 16.3668 15.8242 15.7365 13.5336 15.7361C11.2431 15.7365 9.52518 16.3675 8.37992 16.9243C8.37992 16.9243 2.79698 19.75 5.09698 21.8473C6.2205 22.8717 7.47183 23.6044 9.04505 23.6044L18.0221 23.6037C19.5954 23.6037 20.8468 22.871 21.9702 21.8465Z" stroke="#0D1D24" stroke-width="1.44522" stroke-linecap="round" stroke-linejoin="round"/>
<path d="M17.4677 8.43025C17.4677 10.603 15.7063 12.3644 13.5335 12.3644C11.3607 12.3644 9.59937 10.603 9.59937 8.43025C9.59937 6.25747 11.3607 4.49609 13.5335 4.49609C15.7063 4.49609 17.4677 6.25747 17.4677 8.43025Z" stroke="#0D1D24" stroke-width="1.44522" stroke-linecap="round" stroke-linejoin="round"/>
</svg>
