<svg width="24" height="24" viewBox="0 0 24 24" fill="none" xmlns="http://www.w3.org/2000/svg">
<path d="M3.86328 16.8324L19.1929 16.8324" stroke="#515151" stroke-width="1.43715" stroke-linecap="round" stroke-linejoin="round"/>
<path d="M3.86328 20.6648L12.4862 20.6648" stroke="#515151" stroke-width="1.43715" stroke-linecap="round" stroke-linejoin="round"/>
<path d="M3.86328 8.20945C3.86328 5.95119 3.86328 4.82205 4.56483 4.1205C5.26639 3.41895 6.39552 3.41895 8.65378 3.41895L16.3186 3.41895C18.5768 3.41895 19.706 3.41895 20.4076 4.1205C21.1091 4.82205 21.1091 5.95119 21.1091 8.20945C21.1091 10.4677 21.1091 11.5968 20.4076 12.2984C19.706 13 18.5768 13 16.3186 13L8.65378 13C6.39552 13 5.26639 13 4.56483 12.2984C3.86328 11.5968 3.86328 10.4677 3.86328 8.20945Z" stroke="#515151" stroke-width="1.43715" stroke-linecap="round" stroke-linejoin="round"/>
</svg>
