<svg width="23" height="24" viewBox="0 0 23 24" fill="none" xmlns="http://www.w3.org/2000/svg">
<path d="M8.12643 17.7905L17.2193 17.7905C18.2923 17.7905 19.1621 16.9356 19.1621 15.8811C19.1621 14.4372 17.2193 13.9717 17.2193 13.9717C17.2193 13.9717 13.686 12.6134 9.58112 13.9581C9.58112 13.9581 9.44794 9.04571 7.38693 3.58256C6.98029 2.50468 5.65405 2.13667 4.68081 2.77433C4.03858 3.19513 3.71822 3.95525 3.8696 4.69911L6.22132 16.2556C6.40294 17.1481 7.20031 17.7905 8.12643 17.7905Z" stroke="#515151" stroke-width="1.43715" stroke-linecap="round" stroke-linejoin="round"/>
<path d="M11.9763 10.6047L17.2459 10.6047" stroke="#515151" stroke-width="1.43715" stroke-linecap="round" stroke-linejoin="round"/>
<path d="M15.3296 17.7905L12.4553 21.6229M12.4553 21.6229H7.66479M12.4553 21.6229L17.2458 21.6229" stroke="#515151" stroke-width="1.43715" stroke-linecap="round" stroke-linejoin="round"/>
</svg>
