<svg width="12" height="14" viewBox="0 0 12 14" fill="none" xmlns="http://www.w3.org/2000/svg">
<path fill-rule="evenodd" clip-rule="evenodd" d="M8.01118 2.64557L8.08355 2.69211C9.15065 3.37811 9.99875 3.92331 10.6014 4.42214C11.2144 4.92959 11.6667 5.46225 11.8119 6.15377C11.8994 6.57028 11.8994 7.00146 11.8119 7.41798C11.6667 8.10949 11.2144 8.64215 10.6014 9.1496C9.99875 9.64846 9.15065 10.1936 8.08363 10.8796L8.01118 10.9261C6.84925 11.6732 5.92909 12.2647 5.17827 12.6274C4.42277 12.9925 3.70463 13.195 2.99543 12.9781C2.57713 12.8502 2.19408 12.6261 1.87406 12.3242C1.33851 11.819 1.13081 11.0933 1.03314 10.2362C0.935775 9.38173 0.935783 8.25587 0.935791 6.82704V6.7447C0.935783 5.31588 0.935775 4.19003 1.03314 3.33562C1.13081 2.4784 1.33851 1.75269 1.87406 1.24755C2.19408 0.945716 2.57713 0.721468 2.99543 0.593563C3.70463 0.376699 4.42276 0.579258 5.17827 0.944257C5.92909 1.307 6.84925 1.89859 8.01118 2.64557Z" fill="white"/>
</svg>
