<svg width="24" height="24" viewBox="0 0 24 24" fill="none" xmlns="http://www.w3.org/2000/svg">
<path d="M12.4858 22.0308C15.1315 22.0308 17.2763 19.886 17.2763 17.2403C17.2763 15.6732 16.5239 14.2819 15.3606 13.4079L15.3606 5.74355C15.3606 4.85027 15.3606 4.40363 15.2146 4.05134C15.0201 3.58209 14.6473 3.20925 14.178 3.01478C13.8257 2.86877 13.3791 2.86877 12.4858 2.86877C11.5926 2.86877 11.1459 2.86877 10.7936 3.01478C10.3244 3.20925 9.95152 3.58209 9.75705 4.05134C9.61104 4.40363 9.61104 4.85027 9.61104 5.74355L9.61104 13.4079C8.44775 14.2819 7.69531 15.6732 7.69531 17.2403C7.69531 19.886 9.8401 22.0308 12.4858 22.0308Z" stroke="#515151" stroke-width="1.43715" stroke-linejoin="round"/>
<path d="M12.486 15.324C11.4277 15.324 10.5698 16.1819 10.5698 17.2402C10.5698 18.2985 11.4277 19.1564 12.486 19.1564C13.5443 19.1564 14.4022 18.2985 14.4022 17.2402C14.4022 16.1819 13.5443 15.324 12.486 15.324ZM12.486 15.324L12.486 8.61731" stroke="#515151" stroke-width="1.43715" stroke-linecap="round" stroke-linejoin="round"/>
</svg>
