<svg width="24" height="24" viewBox="0 0 24 24" fill="none" xmlns="http://www.w3.org/2000/svg">
<path d="M7.5 19.5C7.5 18.5344 7.82853 17.5576 8.63092 17.0204C9.59321 16.3761 10.7524 16 12 16C13.2476 16 14.4068 16.3761 15.3691 17.0204C16.1715 17.5576 16.5 18.5344 16.5 19.5" stroke="black" stroke-width="1.5" stroke-linecap="round" stroke-linejoin="round"/>
<path d="M11.9998 13.5C13.3805 13.5 14.4998 12.3807 14.4998 11C14.4998 9.61929 13.3805 8.5 11.9998 8.5C10.619 8.5 9.49976 9.61929 9.49976 11C9.49976 12.3807 10.619 13.5 11.9998 13.5Z" stroke="black" stroke-width="1.5" stroke-linecap="round" stroke-linejoin="round"/>
<path d="M17.5002 11C18.6103 11 19.6417 11.3769 20.4976 12.0224C21.2231 12.5696 21.5002 13.4951 21.5002 14.4038V14.5" stroke="black" stroke-width="1.5" stroke-linecap="round" stroke-linejoin="round"/>
<path d="M17.4998 8.5C18.6043 8.5 19.4998 7.60457 19.4998 6.5C19.4998 5.39543 18.6043 4.5 17.4998 4.5C16.3952 4.5 15.4998 5.39543 15.4998 6.5C15.4998 7.60457 16.3952 8.5 17.4998 8.5Z" stroke="black" stroke-width="1.5" stroke-linecap="round" stroke-linejoin="round"/>
<path d="M6.50024 11C5.39011 11 4.3587 11.3769 3.5028 12.0224C2.7773 12.5696 2.50024 13.4951 2.50024 14.4038V14.5" stroke="black" stroke-width="1.5" stroke-linecap="round" stroke-linejoin="round"/>
<path d="M6.5 8.5C7.60457 8.5 8.5 7.60457 8.5 6.5C8.5 5.39543 7.60457 4.5 6.5 4.5C5.39543 4.5 4.5 5.39543 4.5 6.5C4.5 7.60457 5.39543 8.5 6.5 8.5Z" stroke="black" stroke-width="1.5" stroke-linecap="round" stroke-linejoin="round"/>
</svg>
